<svg width="161" height="197" viewBox="0 0 161 197" fill="none" xmlns="http://www.w3.org/2000/svg">
<path fill-rule="evenodd" clip-rule="evenodd" d="M160 143.324V24.7207C160 11.6201 150.823 1 139.504 1H57.5195C46.1998 1 37.0234 11.6201 37.0234 24.7207V143.324C37.0234 156.425 46.1998 167.045 57.5195 167.045H139.504C150.823 167.045 160 156.425 160 143.324Z" stroke="black" stroke-width="2" stroke-linecap="round" stroke-linejoin="round"/>
<path d="M35.0306 29.8799L14.4916 38.5316C3.85457 43.0123 -1.62991 56.6242 2.24164 68.9347L37.292 180.385C41.1635 192.696 52.925 199.043 63.562 194.563L122.869 167.131" stroke="black" stroke-width="2" stroke-linecap="round" stroke-linejoin="round"/>
<path d="M55.7109 33.165L142.905 33.165" stroke="black" stroke-width="2" stroke-linecap="round" stroke-linejoin="round"/>
<path d="M55.7109 107.547H99.3079H142.905" stroke="black" stroke-width="2" stroke-linecap="round" stroke-linejoin="round"/>
<path d="M55.7109 131.67H99.3079H142.905" stroke="black" stroke-width="2" stroke-linecap="round" stroke-linejoin="round"/>
<path d="M55.7109 57.2891H99.3079H142.905" stroke="black" stroke-width="2" stroke-linecap="round" stroke-linejoin="round"/>
<path d="M55.7109 83.4238H99.3079H142.905" stroke="black" stroke-width="2" stroke-linecap="round" stroke-linejoin="round"/>
</svg>
